# Blender v3.2.1 OBJ File: 'SlashProjectile.blend'
# www.blender.org
mtllib SlashProjectile.mtl
o Cube_Cube.001
v 0.009429 0.677856 0.169998
v -0.058696 0.149145 0.120270
v 0.041991 0.566303 0.342081
v -0.013180 0.305076 -0.120270
v -0.009429 0.677856 0.169998
v 0.058696 0.149145 0.120270
v -0.041991 0.566303 0.342081
v 0.013180 0.305076 -0.120270
v -0.058696 0.000000 0.120270
v -0.013180 0.000000 -0.120270
v 0.013180 0.000000 -0.120270
v 0.058696 0.000000 0.120270
v 0.014029 0.829675 0.560786
v 0.041991 0.677059 0.423802
v -0.014029 0.829675 0.560786
v -0.041991 0.677059 0.423802
v 0.009429 -0.677856 0.169998
v -0.058696 -0.149145 0.120270
v 0.041991 -0.566303 0.342081
v -0.013180 -0.305076 -0.120270
v -0.009429 -0.677856 0.169998
v 0.058696 -0.149145 0.120270
v -0.041991 -0.566303 0.342081
v 0.013180 -0.305076 -0.120270
v 0.014029 -0.829675 0.560786
v 0.041991 -0.677059 0.423802
v -0.014029 -0.829675 0.560786
v -0.041991 -0.677059 0.423802
vt 0.338228 0.105633
vt 0.273908 0.231503
vt 0.000058 0.257524
vt 0.131624 0.000058
vt 0.002180 0.118664
vt 0.014772 0.178185
vt 0.063190 0.180171
vt 0.046072 0.143921
vt 0.131624 0.000058
vt 0.000058 0.257524
vt 0.273908 0.231503
vt 0.338228 0.105633
vt 0.989039 -0.001048
vt 0.989039 0.153604
vt 0.867313 0.153604
vt 0.867313 -0.001048
vt 0.079721 0.698168
vt 0.275633 0.679552
vt 0.971718 0.643510
vt 0.884635 0.643510
vt 0.079721 0.698168
vt 0.275633 0.679553
vt 0.295710 0.808447
vt 0.338228 0.999942
vt 0.000029 0.404483
vt 0.082795 0.404479
vt 0.942723 0.998882
vt 0.913630 0.998882
vt 0.884635 0.786234
vt 0.971718 0.786234
vt 0.031673 0.999971
vt 0.062261 0.953485
vt 0.338228 0.999942
vt 0.295710 0.808447
vt 0.000058 0.257524
vt 0.273908 0.231503
vt 0.063190 0.180171
vt 0.014772 0.178185
vt 0.273908 0.231503
vt 0.000058 0.257524
vt 0.867313 0.153604
vt 0.989039 0.153604
vt 0.275633 0.679552
vt 0.079721 0.698168
vt 0.884635 0.643510
vt 0.971718 0.643510
vt 0.079721 0.698168
vt 0.338228 0.999942
vt 0.295710 0.808447
vt 0.275633 0.679553
vt 0.082795 0.404479
vt 0.000029 0.404483
vt 0.942723 0.998882
vt 0.971718 0.786234
vt 0.884635 0.786234
vt 0.913630 0.998882
vt 0.062261 0.953485
vt 0.031673 0.999971
vt 0.295710 0.808447
vt 0.338228 0.999942
vn -0.7700 0.0000 0.6380
vn -0.8272 -0.1319 0.5461
vn -0.5900 0.2677 -0.7618
vn -0.6380 0.0000 -0.7700
vn 0.5900 0.2677 -0.7618
vn 0.6380 0.0000 -0.7700
vn 0.8272 -0.1319 0.5461
vn 0.7700 0.0000 0.6380
vn 0.5869 0.6448 -0.4897
vn 0.7822 -0.2861 0.5535
vn -0.7822 -0.2861 0.5535
vn -0.5869 0.6448 -0.4897
vn -0.7766 -0.3437 0.5279
vn -0.5272 0.4602 0.7143
vn 0.5272 0.4602 0.7143
vn 0.7766 -0.3437 0.5279
vn -0.5900 -0.2677 -0.7618
vn -0.8272 0.1319 0.5461
vn 0.5900 -0.2677 -0.7618
vn 0.8272 0.1319 0.5461
vn 0.7822 0.2861 0.5535
vn 0.5869 -0.6448 -0.4897
vn -0.7822 0.2861 0.5535
vn -0.5869 -0.6448 -0.4897
vn -0.5272 -0.4602 0.7143
vn -0.7766 0.3437 0.5279
vn 0.5272 -0.4602 0.7143
vn 0.7766 0.3437 0.5279
usemtl None
s 1
f 9/1/1 2/2/2 4/3/3 10/4/4
f 10/5/4 4/6/3 8/7/5 11/8/6
f 11/9/6 8/10/5 6/11/7 12/12/8
f 12/13/8 6/14/7 2/15/2 9/16/1
f 6/11/7 8/10/5 1/17/9 3/18/10
f 2/15/2 6/14/7 3/19/10 7/20/11
f 5/21/12 7/22/11 16/23/13 15/24/14
f 4/3/3 2/2/2 7/22/11 5/21/12
f 8/7/5 4/6/3 5/25/12 1/26/9
f 13/27/15 15/28/14 16/29/13 14/30/16
f 7/20/11 3/19/10 14/30/16 16/29/13
f 1/26/9 5/25/12 15/31/14 13/32/15
f 3/18/10 1/17/9 13/33/15 14/34/16
f 9/1/1 10/4/4 20/35/17 18/36/18
f 10/5/4 11/8/6 24/37/19 20/38/17
f 11/9/6 12/12/8 22/39/20 24/40/19
f 12/13/8 9/16/1 18/41/18 22/42/20
f 22/39/20 19/43/21 17/44/22 24/40/19
f 18/41/18 23/45/23 19/46/21 22/42/20
f 21/47/24 27/48/25 28/49/26 23/50/23
f 20/35/17 21/47/24 23/50/23 18/36/18
f 24/37/19 17/51/22 21/52/24 20/38/17
f 25/53/27 26/54/28 28/55/26 27/56/25
f 23/45/23 28/55/26 26/54/28 19/46/21
f 17/51/22 25/57/27 27/58/25 21/52/24
f 19/43/21 26/59/28 25/60/27 17/44/22
