# Blender v3.2.1 OBJ File: 'AlphaSword.blend'
# www.blender.org
mtllib AlphaSword.mtl
o Cube.001
v -0.023536 -0.258910 0.023536
v -0.011592 0.724971 0.011592
v -0.023536 -0.258910 -0.023536
v -0.011592 0.724971 -0.011592
v 0.023536 -0.258910 0.023536
v 0.011592 0.724971 0.011592
v 0.023536 -0.258910 -0.023536
v 0.011592 0.724971 -0.011592
v -0.023536 -0.032644 0.023536
v -0.023536 -0.032644 -0.023536
v 0.023536 -0.032644 -0.023536
v 0.023536 -0.032644 0.023536
v -0.025009 0.027009 0.025009
v -0.025009 0.027009 -0.025009
v 0.025009 0.027009 -0.025009
v 0.025009 0.027009 0.025009
v -0.048912 0.021122 -0.048912
v -0.048912 -0.025057 -0.048912
v 0.048912 0.021122 -0.048912
v 0.048912 -0.025057 -0.048912
v 0.048912 0.021122 0.048912
v 0.048912 -0.025057 0.048912
v -0.048912 -0.025057 0.048912
v -0.048912 0.021122 0.048912
v -0.000000 -0.258910 -0.033891
v 0.000000 0.724971 -0.016693
v -0.000000 -0.258910 0.033891
v 0.000000 0.724971 0.016693
v -0.000000 -0.032644 0.033891
v -0.000000 -0.032644 -0.033891
v -0.000000 0.027009 0.036012
v -0.000000 0.027009 -0.036012
v -0.000000 -0.025057 0.070433
v -0.000000 -0.025057 -0.070433
v -0.000000 0.021122 0.070433
v -0.000000 0.021122 -0.070433
v -0.033891 -0.258910 0.000000
v -0.016693 0.724971 -0.000000
v 0.033891 -0.258910 0.000000
v 0.016693 0.724971 -0.000000
v 0.033891 -0.032644 0.000000
v -0.033891 -0.032644 0.000000
v 0.036012 0.027009 0.000000
v -0.036012 0.027009 0.000000
v 0.070433 -0.025057 0.000000
v -0.070433 -0.025057 -0.000000
v 0.070433 0.021122 0.000000
v -0.070433 0.021122 -0.000000
v 0.000000 0.772887 -0.000000
v -0.029941 -0.266952 0.029941
v -0.025009 0.632439 0.025009
v -0.025009 0.632439 -0.025009
v 0.025009 0.632439 -0.025009
v 0.025009 0.632439 0.025009
v 0.000000 0.632439 0.036012
v 0.000000 0.632439 -0.036012
v 0.036012 0.632439 -0.000000
v -0.036012 0.632439 -0.000000
v -0.029941 -0.266952 -0.029941
v 0.029941 -0.266952 0.029941
v 0.029941 -0.266952 -0.029941
v -0.000000 -0.266952 -0.043115
v -0.000000 -0.266952 0.043115
v -0.043115 -0.266952 0.000000
v 0.043115 -0.266952 0.000000
v -0.029941 -0.299190 0.029941
v -0.029941 -0.299190 -0.029941
v 0.029941 -0.299190 0.029941
v 0.029941 -0.299190 -0.029941
v -0.000000 -0.299190 -0.043115
v -0.000000 -0.299190 0.043115
v -0.043115 -0.299190 0.000000
v 0.043115 -0.299190 0.000000
v -0.000000 -0.299190 0.000000
vt 0.375000 0.875000
vt 0.430556 0.875000
vt 0.430556 1.000000
vt 0.375000 1.000000
vt 0.375000 0.625000
vt 0.430556 0.625000
vt 0.430556 0.750000
vt 0.375000 0.750000
vt 0.375000 0.375000
vt 0.430556 0.375000
vt 0.430556 0.500000
vt 0.375000 0.500000
vt 0.375000 0.125000
vt 0.430556 0.125000
vt 0.430556 0.250000
vt 0.375000 0.250000
vt 0.444574 0.375000
vt 0.444574 0.500000
vt 0.444574 0.500000
vt 0.444574 0.375000
vt 0.430556 0.500000
vt 0.430556 0.625000
vt 0.430556 0.000000
vt 0.430556 0.000000
vt 0.430556 0.125000
vt 0.444574 0.625000
vt 0.444574 0.750000
vt 0.444574 0.750000
vt 0.444574 0.625000
vt 0.430556 0.875000
vt 0.444574 0.875000
vt 0.444574 1.000000
vt 0.430556 1.000000
vt 0.430556 0.750000
vt 0.430556 0.375000
vt 0.444574 0.125000
vt 0.444574 0.250000
vt 0.430556 0.250000
vt 0.444574 0.875000
vt 0.444574 1.000000
vt 0.444574 0.125000
vt 0.444574 0.250000
vt 0.444574 0.000000
vt 0.444574 0.000000
vt 0.375000 0.000000
vt 0.375000 0.125000
vt 0.375000 0.000000
vt 0.375000 0.500000
vt 0.375000 0.375000
vt 0.375000 1.000000
vt 0.375000 0.875000
vt 0.375000 0.250000
vt 0.375000 0.750000
vt 0.375000 0.625000
vt 0.375000 0.375000
vt 0.375000 0.250000
vt 0.375000 0.750000
vt 0.375000 0.625000
vt 0.375000 0.875000
vt 0.375000 0.500000
vt 0.250000 0.625000
vt 0.250000 0.750000
vt 0.125000 0.625000
vt 0.125000 0.750000
vt 0.125000 0.500000
vt 0.250000 0.500000
vt 0.375000 0.125000
vt 0.375000 1.000000
vt 0.375000 0.000000
vt 0.603475 0.125000
vt 0.625000 0.125000
vt 0.625000 0.250000
vt 0.603475 0.250000
vt 0.603475 0.375000
vt 0.625000 0.375000
vt 0.625000 0.500000
vt 0.603475 0.500000
vt 0.603475 0.625000
vt 0.625000 0.625000
vt 0.625000 0.750000
vt 0.603475 0.750000
vt 0.603475 0.875000
vt 0.625000 0.875000
vt 0.625000 1.000000
vt 0.603475 1.000000
vt 0.750000 0.625000
vt 0.875000 0.625000
vt 0.875000 0.750000
vt 0.750000 0.500000
vt 0.875000 0.500000
vt 0.603475 0.000000
vt 0.625000 0.000000
vt 0.750000 0.750000
vn -0.0000 0.4603 0.8878
vn -0.0000 -0.7237 0.6901
vn -0.4969 -0.7114 0.4969
vn -0.6314 0.4502 0.6314
vn 0.8878 0.4603 -0.0000
vn 0.6901 -0.7237 -0.0000
vn 0.4969 -0.7114 0.4969
vn 0.6314 0.4502 0.6314
vn -0.0000 0.4603 -0.8878
vn 0.0000 -0.7237 -0.6901
vn 0.4969 -0.7114 -0.4969
vn 0.6314 0.4502 -0.6314
vn -0.8878 0.4603 0.0000
vn -0.6901 -0.7237 0.0000
vn -0.4969 -0.7114 -0.4969
vn -0.6314 0.4502 -0.6314
vn 0.0000 0.7396 -0.6731
vn 0.4852 0.7274 -0.4852
vn 0.5767 0.5787 -0.5767
vn 0.0000 0.5733 -0.8193
vn 0.5826 -0.5667 -0.5826
vn 0.8273 -0.5618 0.0000
vn -0.5826 -0.5667 0.5826
vn -0.8273 -0.5618 0.0000
vn 0.6731 0.7396 -0.0000
vn 0.4852 0.7274 0.4852
vn 0.5767 0.5787 0.5767
vn 0.8193 0.5733 -0.0000
vn -0.0000 -0.5618 0.8273
vn -0.0000 0.5733 0.8193
vn -0.5767 0.5787 0.5767
vn 0.5826 -0.5667 0.5826
vn 0.0000 -0.5618 -0.8273
vn -0.8193 0.5733 0.0000
vn -0.5767 0.5787 -0.5767
vn -0.5826 -0.5667 -0.5826
vn -0.0000 0.7396 0.6731
vn -0.4852 0.7274 0.4852
vn -0.6731 0.7396 0.0000
vn -0.4852 0.7274 -0.4852
vn -0.9256 0.3786 0.0000
vn -0.6546 0.3782 0.6546
vn 0.6546 0.3782 -0.6546
vn -0.0000 0.3786 -0.9256
vn -0.0000 0.3786 0.9256
vn -0.6546 0.3782 -0.6546
vn 0.6546 0.3782 0.6546
vn 0.9256 0.3786 -0.0000
vn 0.0000 -0.6267 -0.7793
vn -0.5469 -0.6339 -0.5469
vn 0.5469 -0.6339 0.5469
vn 0.7793 -0.6267 -0.0000
vn -0.0000 -0.6267 0.7793
vn 0.5469 -0.6339 -0.5469
vn 0.0000 -1.0000 0.0000
vn -0.7793 -0.6267 0.0000
vn -0.5469 -0.6339 0.5469
vn -0.9950 0.1001 0.0000
vn -0.9648 0.2631 -0.0000
vn -0.6829 0.2592 -0.6829
vn -0.7037 0.0987 -0.7037
vn 0.0000 0.1001 -0.9950
vn 0.0000 0.2631 -0.9648
vn 0.6829 0.2592 -0.6829
vn 0.7037 0.0987 -0.7037
vn 0.9950 0.1001 -0.0000
vn 0.9648 0.2631 -0.0000
vn 0.6829 0.2592 0.6829
vn 0.7037 0.0987 0.7037
vn 0.0000 0.1001 0.9950
vn 0.0000 0.2631 0.9648
vn -0.6829 0.2592 0.6829
vn -0.7037 0.0987 0.7037
vn 0.0000 1.0000 -0.0000
usemtl Material.001
s 1
f 27/1/1 29/2/2 9/3/3 1/4/4
f 39/5/5 41/6/6 12/7/7 5/8/8
f 25/9/9 30/10/10 11/11/11 7/12/12
f 37/13/13 42/14/14 10/15/15 3/16/16
f 32/17/17 15/18/18 19/19/19 36/20/20
f 41/6/6 11/11/11 20/21/21 45/22/22
f 42/14/14 9/23/3 23/24/23 46/25/24
f 43/26/25 16/27/26 21/28/27 47/29/28
f 33/30/29 35/31/30 24/32/31 23/33/23
f 45/22/22 47/29/28 21/28/27 22/34/32
f 34/35/33 36/20/20 19/19/19 20/21/21
f 46/25/24 48/36/34 17/37/35 18/38/36
f 31/39/37 13/40/38 24/32/31 35/31/30
f 30/10/10 10/15/15 18/38/36 34/35/33
f 44/41/39 14/42/40 17/37/35 48/36/34
f 29/2/2 12/7/7 22/34/32 33/30/29
f 9/3/3 29/2/2 33/30/29 23/33/23
f 11/11/11 30/10/10 34/35/33 20/21/21
f 16/27/26 31/39/37 35/31/30 21/28/27
f 18/38/36 17/37/35 36/20/20 34/35/33
f 22/34/32 21/28/27 35/31/30 33/30/29
f 14/42/40 32/17/17 36/20/20 17/37/35
f 3/16/16 10/15/15 30/10/10 25/9/9
f 5/8/8 12/7/7 29/2/2 27/1/1
f 13/43/38 44/41/39 48/36/34 24/44/31
f 23/24/23 24/44/31 48/36/34 46/25/24
f 20/21/21 19/19/19 47/29/28 45/22/22
f 15/18/18 43/26/25 47/29/28 19/19/19
f 10/15/15 42/14/14 46/25/24 18/38/36
f 12/7/7 41/6/6 45/22/22 22/34/32
f 1/45/4 9/23/3 42/14/14 37/13/13
f 7/12/12 11/11/11 41/6/6 39/5/5
f 1/45/4 37/13/13 64/46/41 50/47/42
f 25/9/9 7/12/12 61/48/43 62/49/44
f 27/1/1 1/4/4 50/50/42 63/51/45
f 37/13/13 3/16/16 59/52/46 64/46/41
f 3/16/16 25/9/9 62/49/44 59/52/46
f 39/5/5 5/8/8 60/53/47 65/54/48
f 5/8/8 27/1/1 63/51/45 60/53/47
f 7/12/12 39/5/5 65/54/48 61/48/43
f 59/52/46 62/49/44 70/55/49 67/56/50
f 65/54/48 60/53/47 68/57/51 73/58/52
f 60/53/47 63/51/45 71/59/53 68/57/51
f 61/48/43 65/54/48 73/58/52 69/60/54
f 74/61/55 73/58/52 68/57/51 71/62/53
f 72/63/56 74/61/55 71/62/53 66/64/57
f 67/65/50 70/66/49 74/61/55 72/63/56
f 70/66/49 69/60/54 73/58/52 74/61/55
f 64/46/41 59/52/46 67/56/50 72/67/56
f 63/51/45 50/50/42 66/68/57 71/59/53
f 62/49/44 61/48/43 69/60/54 70/55/49
f 50/47/42 64/46/41 72/67/56 66/69/57
usemtl Material.002
f 58/70/58 38/71/59 4/72/60 52/73/61
f 56/74/62 26/75/63 8/76/64 53/77/65
f 57/78/66 40/79/67 6/80/68 54/81/69
f 55/82/70 28/83/71 2/84/72 51/85/73
f 49/86/74 38/87/59 2/88/72
f 40/79/67 49/86/74 6/80/68
f 54/81/69 6/80/68 28/83/71 55/82/70
f 52/73/61 4/72/60 26/75/63 56/74/62
f 8/76/64 49/86/74 40/79/67
f 26/89/63 4/90/60 49/86/74
f 53/77/65 8/76/64 40/79/67 57/78/66
f 51/91/73 2/92/72 38/71/59 58/70/58
f 13/43/38 51/91/73 58/70/58 44/41/39
f 15/18/18 53/77/65 57/78/66 43/26/25
f 14/42/40 52/73/61 56/74/62 32/17/17
f 16/27/26 54/81/69 55/82/70 31/39/37
f 31/39/37 55/82/70 51/85/73 13/40/38
f 43/26/25 57/78/66 54/81/69 16/27/26
f 32/17/17 56/74/62 53/77/65 15/18/18
f 44/41/39 58/70/58 52/73/61 14/42/40
f 2/88/72 28/93/71 49/86/74
f 49/86/74 8/76/64 26/89/63
f 49/86/74 4/90/60 38/87/59
f 6/80/68 49/86/74 28/93/71
