# Blender v3.2.1 OBJ File: 'Shield.blend'
# www.blender.org
mtllib Shield.mtl
o Cube_Cube.001
v 0.266625 -0.218151 0.060770
v 0.266625 0.261377 0.060770
v -0.266625 0.261377 0.060770
v -0.266625 -0.218151 0.060770
v -0.266625 0.261377 -0.060770
v -0.266625 -0.218151 -0.060770
v 0.266625 0.261377 -0.060770
v 0.266625 -0.218151 -0.060770
v -0.139473 -0.430131 0.060770
v -0.139473 -0.430131 -0.060770
v 0.139473 -0.430131 -0.060770
v 0.139473 -0.430131 0.060770
vt 0.451637 0.000000
vt 0.625000 0.000000
vt 0.625000 0.250000
vt 0.451637 0.250000
vt 0.625000 0.500000
vt 0.451637 0.500000
vt 0.625000 0.750000
vt 0.451637 0.750000
vt 0.625000 1.000000
vt 0.451637 1.000000
vt 0.125000 0.500000
vt 0.375000 0.500000
vt 0.375000 0.750000
vt 0.125000 0.750000
vt 0.875000 0.500000
vt 0.875000 0.750000
vt 0.375000 1.000000
vt 0.375000 0.250000
vt 0.375000 0.000000
vn 0.0000 -0.0000 1.0000
vn -1.0000 0.0000 0.0000
vn -0.0000 -0.0000 -1.0000
vn 1.0000 -0.0000 -0.0000
vn -0.0000 -1.0000 0.0000
vn 0.0000 1.0000 0.0000
vn 0.8576 -0.5144 -0.0000
vn -0.8576 -0.5144 0.0000
usemtl Material.001
s 1
f 1/1/1 2/2/1 3/3/1 4/4/1
f 4/4/2 3/3/2 5/5/2 6/6/2
f 6/6/3 5/5/3 7/7/3 8/8/3
f 8/8/4 7/7/4 2/9/4 1/10/4
f 9/11/5 10/12/5 11/13/5 12/14/5
f 5/5/6 3/15/6 2/16/6 7/7/6
f 11/13/7 8/8/7 1/10/7 12/17/7
f 10/12/3 6/6/3 8/8/3 11/13/3
f 9/18/8 4/4/8 6/6/8 10/12/8
f 12/19/1 1/1/1 4/4/1 9/18/1
