# Blender v3.2.1 OBJ File: 'ThrustEffect.blend'
# www.blender.org
mtllib ThrustEffect.mtl
o Cone
v 0.000000 -1.000000 -1.000000
v 0.866025 -1.000000 -0.500000
v 0.866025 -1.000000 0.500000
v -0.000000 -1.000000 1.000000
v -0.866025 -1.000000 0.500000
v -0.866025 -1.000000 -0.500000
v 0.000000 1.000000 0.000000
vt 0.540496 0.899921
vt 0.976299 0.000099
vt 0.976299 0.999901
vt -0.011702 0.011900
vt 0.988100 0.011900
vt 0.088278 0.447704
vt 0.368223 0.796347
vt 0.772143 0.988100
vt 0.164062 0.975418
vt 0.295005 0.899818
vt 0.295005 0.748619
vt 0.164062 0.673020
vt 0.033120 0.748619
vt 0.033120 0.899818
vt 0.000099 0.216056
vt 0.191852 0.619976
vn 0.4588 0.3974 -0.7947
vn 0.9177 0.3974 0.0000
vn 0.4588 0.3974 0.7947
vn -0.4588 0.3974 0.7947
vn 0.0000 -1.0000 0.0000
vn -0.9177 0.3974 0.0000
vn -0.4588 0.3974 -0.7947
usemtl None
s off
f 1/1/1 7/2/1 2/3/1
f 2/4/2 7/5/2 3/6/2
f 3/6/3 7/5/3 4/7/3
f 4/7/4 7/5/4 5/8/4
f 1/9/5 2/10/5 3/11/5 4/12/5 5/13/5 6/14/5
f 5/15/6 7/2/6 6/16/6
f 6/16/7 7/2/7 1/1/7
