# Blender v3.2.1 OBJ File: 'ExitHole.blend'
# www.blender.org
mtllib ExitHole.mtl
o Cube_Cube.001
v -1.500000 0.000000 1.500000
v -1.500000 2.017843 1.500000
v -1.500000 0.000000 -1.500000
v -1.500000 2.017843 -1.500000
v 1.500000 0.000000 1.500000
v 1.500000 2.017843 1.500000
v 1.500000 0.000000 -1.500000
v 1.500000 2.017843 -1.500000
v -1.012616 2.162532 1.060608
v -1.012616 2.162532 -1.060608
v 1.012616 2.162532 -1.060608
v 1.012616 2.162532 1.060608
v 0.000000 0.000000 -1.794740
v 0.000000 2.017843 -1.794740
v 0.000000 0.000000 1.794740
v 0.000000 2.017843 1.794740
v 0.000000 2.162532 -1.359777
v 0.000000 2.162532 1.359777
v -1.796872 0.000000 0.000000
v -1.796872 2.017843 0.000000
v 1.796872 0.000000 0.000000
v 1.796872 2.017843 0.000000
v -1.359777 2.162532 0.000000
v 1.359777 2.162532 0.000000
v -0.935513 0.029114 0.000000
v -1.138875 1.742027 0.000000
v -0.848111 1.742027 -0.888307
v 0.000000 1.742027 -1.138875
v 0.848111 1.742027 -0.888307
v 1.138875 1.742027 0.000000
v 0.848111 1.742027 0.888307
v 0.000000 1.742027 1.138875
v -0.848111 1.742027 0.888307
v -0.696669 0.029114 -0.729687
v 0.000000 0.029114 -0.935513
v 0.696669 0.029114 -0.729687
v 0.935513 0.029114 0.000000
v 0.696669 0.029114 0.729687
v 0.000000 0.029114 0.935513
v -0.696669 0.029114 0.729687
vt 0.375000 0.125000
vt 0.625000 0.125000
vt 0.625000 0.250000
vt 0.375000 0.250000
vt 0.375000 0.375000
vt 0.625000 0.375000
vt 0.625000 0.500000
vt 0.375000 0.500000
vt 0.375000 0.625000
vt 0.625000 0.625000
vt 0.625000 0.750000
vt 0.375000 0.750000
vt 0.375000 0.875000
vt 0.625000 0.875000
vt 0.625000 1.000000
vt 0.375000 1.000000
vt 0.625000 0.500000
vt 0.625000 0.625000
vt 0.625000 0.375000
vt 0.625000 0.375000
vt 0.625000 0.500000
vt 0.625000 0.000000
vt 0.625000 0.000000
vt 0.625000 0.125000
vt 0.625000 0.750000
vt 0.625000 0.875000
vt 0.625000 0.250000
vt 0.625000 1.000000
vt 0.625000 0.250000
vt 0.625000 0.875000
vt 0.625000 1.000000
vt 0.625000 0.625000
vt 0.375000 0.000000
vt 0.625000 0.125000
vt 0.625000 0.000000
vt 0.625000 0.000000
vt 0.625000 0.125000
vt 0.625000 0.250000
vt 0.625000 0.750000
vt 0.625000 0.625000
vt 0.625000 0.750000
vt 0.625000 0.375000
vt 0.625000 0.875000
vt 0.625000 1.000000
vt 0.625000 0.500000
vn -0.9810 0.0000 -0.1941
vn 0.1928 0.0000 -0.9812
vn 0.9810 0.0000 0.1941
vn -0.1928 0.0000 0.9812
vn 0.2687 0.9609 -0.0676
vn -0.2530 0.4499 0.8565
vn -0.2687 0.9609 0.0676
vn 0.0662 0.9577 0.2801
vn -0.0662 0.9577 -0.2801
vn 0.0662 0.9577 -0.2801
vn -0.0662 0.9577 0.2801
vn 0.2530 0.4499 0.8565
vn 0.1928 0.0000 0.9812
vn -0.1928 0.0000 -0.9812
vn 0.2530 0.4499 -0.8565
vn -0.2687 0.9609 -0.0676
vn -0.8503 0.4467 0.2783
vn 0.2687 0.9609 0.0676
vn 0.9810 0.0000 -0.1941
vn -0.9810 0.0000 0.1941
vn 0.9444 0.1121 -0.3091
vn 0.9444 0.1121 0.3091
vn -0.9444 0.1121 -0.3091
vn 0.2815 0.1131 0.9529
vn 0.8503 0.4467 -0.2783
vn -0.2530 0.4499 -0.8565
vn -0.8503 0.4467 -0.2783
vn 0.8503 0.4467 0.2783
vn -0.2815 0.1131 -0.9529
vn 0.2815 0.1131 -0.9529
vn -0.2815 0.1131 0.9529
vn -0.9444 0.1121 0.3091
usemtl None
s off
f 19/1/1 20/2/1 4/3/1 3/4/1
f 13/5/2 14/6/2 8/7/2 7/8/2
f 21/9/3 22/10/3 6/11/3 5/12/3
f 15/13/4 16/14/4 2/15/4 1/16/4
f 22/10/5 8/7/5 11/17/5 24/18/5
f 11/17/6 17/19/6 28/20/6 29/21/6
f 20/2/7 2/22/7 9/23/7 23/24/7
f 16/14/8 6/11/8 12/25/8 18/26/8
f 14/6/9 4/3/9 10/27/9 17/19/9
f 8/7/10 14/6/10 17/19/10 11/17/10
f 2/15/11 16/14/11 18/26/11 9/28/11
f 17/19/12 10/27/12 27/29/12 28/20/12
f 5/12/13 6/11/13 16/14/13 15/13/13
f 3/4/14 4/3/14 14/6/14 13/5/14
f 9/28/15 18/26/15 32/30/15 33/31/15
f 4/3/16 20/2/16 23/24/16 10/27/16
f 24/18/17 11/17/17 29/21/17 30/32/17
f 6/11/18 22/10/18 24/18/18 12/25/18
f 7/8/19 8/7/19 22/10/19 21/9/19
f 1/33/20 2/22/20 20/2/20 19/1/20
f 26/34/21 33/35/21 40/36/21 25/37/21
f 27/29/22 26/34/22 25/37/22 34/38/22
f 31/39/23 30/32/23 37/40/23 38/41/23
f 28/20/24 27/29/24 34/38/24 35/42/24
f 23/24/25 9/23/25 33/35/25 26/34/25
f 18/26/26 12/25/26 31/39/26 32/30/26
f 12/25/27 24/18/27 30/32/27 31/39/27
f 10/27/28 23/24/28 26/34/28 27/29/28
f 32/30/29 31/39/29 38/41/29 39/43/29
f 33/31/30 32/30/30 39/43/30 40/44/30
f 29/21/31 28/20/31 35/42/31 36/45/31
f 30/32/32 29/21/32 36/45/32 37/40/32
